<svg xmlns="http://www.w3.org/2000/svg" xmlns:xlink="http://www.w3.org/1999/xlink" xmlns:serif="http://www.serif.com/" viewBox="0 0 24 30" version="1.1" xml:space="preserve" style="" x="0px" y="0px" fill-rule="evenodd" clip-rule="evenodd" stroke-linejoin="round" stroke-miterlimit="2"><g><path d="M12,1.25c5.933,0 10.75,4.817 10.75,10.75c0,5.933 -4.817,10.75 -10.75,10.75c-5.933,0 -10.75,-4.817 -10.75,-10.75c0,-5.933 4.817,-10.75 10.75,-10.75Zm0,1.5c-5.105,0 -9.25,4.145 -9.25,9.25c0,5.105 4.145,9.25 9.25,9.25c5.105,0 9.25,-4.145 9.25,-9.25c0,-5.105 -4.145,-9.25 -9.25,-9.25Z"/><path d="M16.599,15.549c0.248,0.331 0.182,0.802 -0.149,1.051c-0.331,0.248 -0.802,0.182 -1.05,-0.149c-0.776,-1.033 -2.011,-1.701 -3.4,-1.701c-1.389,-0 -2.624,0.668 -3.4,1.701c-0.248,0.331 -0.719,0.397 -1.05,0.149c-0.331,-0.249 -0.397,-0.72 -0.149,-1.051c1.05,-1.396 2.72,-2.299 4.599,-2.299c1.879,-0 3.549,0.903 4.599,2.299Z"/><circle cx="16" cy="9.5" r="1"/><circle cx="8" cy="9.5" r="1"/></g><text x="0" y="39" fill="#000000" font-size="5px" font-weight="bold" font-family="'Helvetica Neue', Helvetica, Arial-Unicode, Arial, Sans-serif">Created by Rolas Design</text><text x="0" y="44" fill="#000000" font-size="5px" font-weight="bold" font-family="'Helvetica Neue', Helvetica, Arial-Unicode, Arial, Sans-serif">from the Noun Project</text></svg>