<svg xmlns="http://www.w3.org/2000/svg" version="1.1" viewBox="-5.0 -10.0 110.0 135.0">
 <path d="m86.125 46.316c2.7461-3.2109 5.7539-7.5117 6.9727-11.906 0.83594-3.0156 0.82031-6.0859-0.77344-8.8477-1.5977-2.7617-4.25-4.3125-7.2695-5.0898-4.418-1.1367-9.6445-0.6875-13.801 0.085938-1.957 0.36328-3.9453 0.83203-5.9414 1.3906-0.38672 0.10938-0.77344 0.21875-1.1641 0.33594 1.4727 0.75391 2.875 1.6211 4.1992 2.5859 1.3672 1 2.6523 2.1094 3.8359 3.3164 0.21875-0.042969 0.40234-0.078125 0.47656-0.078125 1.0273-0.19141 4.9414-0.74219 7.957-0.64844 2.293 0.070312 4.2734 0.58203 5.0586 1.9414 0.78516 1.3672 0.23828 3.3359-0.84375 5.3477-1.4297 2.6562-3.8672 5.7773-4.5469 6.5703-3.0078 3.5195-6.6094 6.832-10.445 9.8516-4.4375 3.5-9.2266 6.6328-13.801 9.2773l-0.14453 0.082031c-4.5508 2.6211-9.6367 5.1797-14.867 7.2617-4.4297 1.7617-9 3.2188-13.688 4.0977-1.0273 0.19141-4.9414 0.74219-7.957 0.64844-2.293-0.070312-4.2734-0.58203-5.0586-1.9414-0.78516-1.3672-0.23828-3.3359 0.84375-5.3477 1.3672-2.543 3.6602-5.5078 4.4492-6.457 0.12891-0.16016 0.26172-0.31641 0.39844-0.47656-0.73828-2.6523-1.1328-5.4453-1.1328-8.3203 0-0.53906 0.015626-1.0781 0.042969-1.6094l-0.87109 0.83594c-1.4766 1.4492-2.8789 2.9375-4.1797 4.457-2.7461 3.2109-5.7539 7.5156-6.9727 11.91-0.83594 3.0117-0.82031 6.0859 0.77344 8.8438 1.5977 2.7617 4.25 4.3125 7.2734 5.0898 4.418 1.1367 9.6445 0.6875 13.797-0.085938 4.8867-0.91016 9.9219-2.4688 14.855-4.418 5.6484-2.2305 11.105-4.9531 16.043-7.7891l0.26953-0.15234c4.9922-2.8828 10.137-6.2773 14.91-10.066 4.0625-3.2188 7.9336-6.7695 11.301-10.703zm-6.0078 11.516c-1.7266 6.6523-5.6055 12.449-10.848 16.59-5.3047 4.1914-12.004 6.6953-19.27 6.6953-1.5156 0-3.0195-0.11328-4.5039-0.32813-1.2891-0.1875-2.5508-0.45312-3.7734-0.78906-4.0586 1.4414-8.1797 2.6055-12.262 3.3633-4.5859 0.85156-10.406 1.3359-15.5 0.023438-3.9961-1.0273-7.5352-3.1328-9.7422-6.9492-2.2109-3.8203-2.2695-7.9375-1.1641-11.91 1.4102-5.0742 4.7539-9.8906 7.7852-13.441 1.375-1.6094 2.8555-3.1836 4.4141-4.707 1.457-1.4258 3.0039-2.8281 4.6172-4.2031 1.4102-5.4492 4.2617-10.32 8.1211-14.18 5.6328-5.6328 13.414-9.1133 22.004-9.1133 2.8672 0 5.6445 0.39063 8.2852 1.1172 1.9688-0.69922 3.9609-1.3359 5.9648-1.8945 2.0938-0.58594 4.1992-1.082 6.2891-1.4688 4.582-0.85156 10.41-1.3359 15.504-0.023438 3.9961 1.0312 7.5312 3.1367 9.7383 6.9492 2.2109 3.8203 2.2695 7.9375 1.1641 11.91-1.4141 5.0781-4.7539 9.8906-7.7852 13.438-2.6875 3.1406-5.7539 6.125-9.0352 8.9219zm-31.109 19.266c0.32813 0.011719 0.65625 0.015625 0.99219 0.015625 6.3516 0 12.191-2.1758 16.801-5.8203 2.9492-2.332 5.4023-5.2656 7.1758-8.6133-3.9609 2.9102-8.0781 5.5547-12.102 7.875l-0.25 0.13281c-3.9648 2.2773-8.2266 4.4766-12.617 6.4102zm-24.309-17.297c1.082 2.7891 2.6172 5.3594 4.5117 7.6172 3.4258-0.8125 6.9141-1.9648 10.344-3.3281 5.0312-2.0039 9.9297-4.4688 14.32-6.9922l0.16016-0.097656c4.4141-2.5508 9.0391-5.5781 13.332-8.9648 2.9219-2.3008 5.6836-4.7617 8.1133-7.3359-1.8438-5.0547-5.168-9.4375-9.4961-12.605-4.4766-3.2734-10.004-5.207-15.988-5.207-7.4883 0-14.27 3.0352-19.176 7.9414s-7.9414 11.688-7.9414 19.176c0 3.3516 0.61328 6.6797 1.8164 9.8047zm-3.1016 2.918c-0.91016 1.207-2.1016 2.9023-2.918 4.418-0.46875 0.87109-0.92188 1.3633-0.90625 1.4609 0.042968 0.070313 0.70703-0.074218 1.7188-0.042968 1.7227 0.050781 3.793-0.13281 5.2969-0.32031-1.2383-1.7109-2.3086-3.5625-3.1875-5.5156zm56.797-25.438c0.91016-1.207 2.1016-2.9023 2.918-4.4219 0.46875-0.87109 0.92188-1.3633 0.90625-1.4609-0.042969-0.070313-0.70703 0.074218-1.7188 0.042968-1.7266-0.050781-3.793 0.13672-5.3008 0.32031 1.2422 1.7148 2.3125 3.5625 3.1914 5.5156z"/>
</svg>