<svg xmlns="http://www.w3.org/2000/svg" xmlns:xlink="http://www.w3.org/1999/xlink" version="1.1" x="0px" y="0px" viewBox="0 0 1000 1250" style="enable-background:new 0 0 1000 1000;" xml:space="preserve"><g><path d="M618.7020874,852.0355225c-3.6699829-4.2457275-8.2973022-6.8096313-13.9539185-7.3347778   c-9.4220581-0.874939-18.8674316-0.8673706-28.2683716-0.0100708c-8.3065796,0.7573853-14.8079834,4.8427734-19.6528931,11.7542114   c-3.5420532,5.0528564-7.190979,10.0402832-9.8829346,15.5907593c-1.6607056,3.4241943-4.0048218,4.6468506-7.7365723,4.6502686   c-11.9707642,0.0106201-23.8018188-1.5084839-35.6382446-2.9355469   c-7.3173218-0.8820801-14.5869141-2.1586914-21.8779907-3.2582397c-0.0899048-0.4974976-0.1798096-0.9949341-0.2696533-1.4924316   c3.2034912-1.4761353,6.3916626-2.9866943,9.6127319-4.4232788   c43.9304199-19.5941162,87.9710693-38.9567261,131.2055664-60.0591431   c32.5963745-15.9098511,52.878479-40.8604736,56.1258545-78.0999756   c1.1442261-13.1216431,4.7094727-25.2276001,16.133606-33.7802734c6.8618164-5.137085,7.3482056-12.1976318,4.7471313-20.2580566   c-4.0324707-12.4962158-2.2160645-16.3035278,8.9237061-22.4690552c1.0631104-5.0968018-0.0688477-10.1419067-2.9415894-14.2113037   c-9.4033203-13.3203125-9.9329224-27.8745117-7.2143555-43.1309204c1.2667847-7.1089478,2.2098389-14.2755127,3.4005127-22.0775146   c7.8093872,3.1576538,14.84198,5.7294312,21.6194458,8.8544312c3.4742432,1.6019897,6.4619141,1.4549561,9.9160767,0.2477417   c13.536438-4.7310791,22.6555786-14.1488647,28.9958496-26.6552124   c7.0578003-13.921936,12.7454224-28.4401245,18.4289551-42.9441223   c3.2280884-8.2380981,8.4296875-14.5863647,15.7860107-19.3092041c2.4397583-1.5663452,4.9003906-3.0906372,6.0453491-5.9790649   c5.1739502-13.0526123,13.0419312-24.3361816,22.2562866-34.8580322c5.1829834-5.918396,7.1647339-13.1923828,5.5115967-21.0415039   c-4.6314697-21.9902344-12.8961792-41.8648071-33.0269775-55.0737305   c10.2603149-19.7112427,26.2506714-32.883667,47.977417-40.6781616   c-20.9108276-5.0471802-27.8068848-17.8855591-20.9487915-37.088562c2.0837402-5.8345337,5.1612549-11.168335,8.467041-16.3811035   c6.2887573-9.9162598,12.7877197-19.7188721,17.1157837-30.7256927c3.6551514-9.2953491,5.7298584-18.8535156,5.303772-29.5767822   c-9.1982422,9.895752-15.7371216,10.2678833-25.8345337,2.053833   c-6.0172729-4.8948975-10.7559204-11.0142822-15.8671875-16.7676392   c-20.2588501-22.8037109-42.7442017-42.8139648-70.7679443-55.6843262   c-18.8914185-8.6761475-38.2126465-13.3340454-58.456604-4.1460571c-0.7835083,0.3555908-1.803894,0.1891479-2.7047729,0.2651367   c-0.4767456-2.137146,0.9346313-3.1424561,1.7483521-4.3273926c17.7862549-25.9003372,18.8665771-57.1120682,1.5392456-82.9954224   c-21.1289062-31.5621967-50.4869385-36.4508667-87.8284912-39.8455811   c-77.5119629-3.3946533-130.2545776-9.4798584-204.8126831-9.6182861c-3.4561768-0.0064087-5.722168,1.5646973-8.0783081,3.6777954   c-17.1605225,15.3898315-55.6133423,29.2861347-77.7851562,36.8120728   c-12.9328613,4.3899536-26.0111694,8.3568726-38.9039307,12.8584595   c-15.8618622,5.5382652-30.0276337,13.7651329-41.1517181,26.7537804   c-25.692627,29.9990234-26.8920898,85.4943924,4.072998,114.6564407c0.8120728,0.7647705,1.4562988,1.7077637,2.421875,2.8570557   c-10.1526489,14.7139282-22.2911377,27.2119141-38.1733398,37.4520264   c8.4268799,0.8787842,15.5583496-0.5198364,23.7354126,0.9544678c-10.005249,43.925827-40.0158691,72.4393768-72.9332275,99.083725   c2.8192139,8.435791,8.6137085,14.1279297,15.7244873,18.6564331c11.8532104,7.548645,23.800415,14.9498901,35.6401367,22.5194702   c1.8084717,1.1561279,4.3531494,1.7265015,4.9298096,4.7821045c-9.7455444,6.559082-21.1557007,11.9036865-22.0292969,26.0129395   c-0.7518921,12.144043,0.2877197,23.9138794,7.1920166,35.8882446   c0.8701782-21.7683716-2.4491577-44.0991821,23.2446289-53.9442749   c7.9292603,4.9995117,15.6906738,10.1072998,23.4107056,16.8208618c-3.1854858,0.5048828-5.3189087-0.1468506-7.5297852-0.5628052   c-17.2953491-3.2544556-31.3922119,5.571167-33.7700806,22.9492798   c-3.6209106,26.461853,4.3520508,49.1358032,26.0792236,65.7858276   c6.1777344,4.7341919,10.8418579,10.2669373,13.6886597,17.4371033c1.774353,4.4690552,3.6293335,8.90625,5.4316406,13.3643799   c4.3247681,10.697876,8.1206665,21.6626587,14.6385498,31.3109741   c8.1679535,12.0910645,19.3005219,18.2987061,34.2637787,17.3287964   c5.1291504-0.3324585,10.1456909-2.2470703,15.4058228-1.3654785c2.0465088,4.239624,2.4483643,8.6427002,2.6997681,13.0550537   c0.5737915,10.0682983-0.6525879,19.9337158-2.8814697,29.7716064c-0.9591675,4.2335205-2.6707764,8.8510132,2.251709,12.6204224   c9.5996704,7.3510742,9.9443359,10.4222412,3.5527954,20.6275024c-4.249939,6.7857056-4.2357788,11.4018555,1.3320312,16.519043   c5.7312622,5.267334,7.1379395,10.6099854,2.8080444,17.2487793c-0.6161499,0.944519-0.9127808,2.1129761-1.2753296,3.204895   c-1.9243774,5.7944946-0.6860352,8.4188843,4.9403076,10.9057617c2.5912476,1.1454468,5.6278076,1.5391235,7.6411133,4.401123   c0.0881958,1.050415,0.4230347,2.4049683,0.2737427,3.7037964c-0.7437134,6.4675903,2.0847778,10.2670898,7.947998,13.0657959   c7.8874512,3.7649536,9.1185303,9.0581055,4.989624,17.0045776   c-16.9703369,32.6605225-36.2427979,63.9711304-55.6359253,95.2194824   c-4.4098511,7.1056519-9.4512329,13.4956055-15.5377197,19.2230225   c-27.0773163,25.4801636-54.038559,51.0837402-81.0277557,76.6574097c-2.5820923,2.4466553-5.067749,4.9951172-8.3427124,8.2322388   c2.9168701,0.1309204,4.59021,0.2711182,6.2636108,0.2714233c31.7888794,0.0062866,63.5778809,0.045105,95.3663177-0.072937   c3.9734497-0.0147705,7.5310059,0.710083,11.0583496,2.5095825c11.3129272,5.7713623,22.6828003,11.4331055,34.0945435,17.0064087   c1.6794434,0.8201904,3.3887939,2.7310791,6.0338745,0.9110718c-7.1021118-21.3237305-14.178833-42.6573486-21.3353271-63.9642334   c-1.062439-3.163208-1.6645508-6.0239868-0.3101196-9.4240723c15.2340088-38.243103,30.3040161-76.5515137,45.4605713-114.8255615   c0.7507935-1.8959351,1.1377563-4.1342773,3.5752563-5.2957153c2.3807373,1.6251831,3.7992554,4.1705322,5.4191284,6.4960938   c7.8754272,11.3067627,16.9807129,21.3893433,28.2942505,29.4117432   c27.9614258,19.8269653,55.8712769,39.7266846,83.7648926,59.6489258c1.7857666,1.2754517,4.1704712,2.0162964,4.9685059,4.3827515   c-0.7698975,1.0936279-1.7938843,0.9238892-2.663208,0.732666c-19.3320312-4.2498779-38.9478149-7.5500488-56.9619751-16.3474731   c-3.826416-1.8687134-7.4525757-2.2255859-11.6710815-1.2038574c-10.1625977,2.4614868-19.9292603,5.8949585-29.2236938,10.6273193   c-16.809082,8.5584106-33.5782471,17.1958618-50.3247681,25.8762207   c-16.3484497,8.4741211-17.0922241,9.8731079-8.4997559,26.2354736   c12.156189,23.1481934,29.4456177,42.3540039,49.1149902,59.2477417   c11.986145,10.2949219,22.7457275,9.1793823,34.4922485-1.578064c6.7354126-6.168335,11.6412354-13.8421021,17.0527344-21.0809326   c4.2296753-5.65802,9.298645-8.3797607,16.6734619-8.2818604c26.3898315,0.350647,52.7874756,0.0596313,79.1809082,0.2188721   c7.9691162,0.0481567,15.5980835-0.4674683,23.0215454-3.9940186c8.0510254-3.824707,15.2342529-1.758728,21.4382324,4.7095947   c8.9326782,9.3134155,18.0423584,18.4610596,27.2203979,27.5338135   c6.7722778,6.6945801,13.0601807,13.9307861,20.9179077,20.2680054   c17.3980103-19.6836548,35.0141602-38.2692261,50.3925781-58.7825928c1.9207764-2.5623169,3.0219116-5.7781372,4.2918091-8.7803345   c1.9199829-4.5388184,1.7435303-9.1173096-0.8977051-13.2952881   C648.3725586,890.4017334,634.6087646,870.4381714,618.7020874,852.0355225z M263.03302,379.5536194   c-1.6856689-0.8878784-2.9473877-1.7037354-3.5013428-4.1935425c3.7732544-4.7164917,7.8729858-9.8409424,12.0967407-15.1204834   C275.3131714,366.2466736,273.7414551,369.6249084,263.03302,379.5536194z M255.7749176,371.39328   c-2.6519775-0.1131592-3.6539917-1.4147949-4.7506714-3.8685303c5.6145477-7.1090698,11.4675751-14.5200806,17.543869-22.2136841   C274.8743286,353.0046082,260.4180298,365.3695984,255.7749176,371.39328z M265.3612671,339.6122131   c-6.1821289,7.8289185-12.276535,15.7271729-18.5359955,23.7662354c-2.4828491-0.6168823-3.458252-1.9628906-4.6263428-3.6970825   c7.7260132-9.7444458,15.0035858-19.7125244,23.8937836-29.2632446   C267.7947388,334.2952576,267.454834,336.9610291,265.3612671,339.6122131z M234.4749908,348.7356873   c6.9223022-8.5964966,13.9066772-17.1430054,21.4482422-25.2755737   c-5.4226074,10.6702881-12.2005615,20.3834839-19.4728394,29.6418457   C233.411087,352.2166443,232.8618927,350.7389832,234.4749908,348.7356873z M281.920166,574.2908325   c-14.1292725,2.6019897-24.7576294-10.722229-29.6470795-22.171814   c-5.9782715-13.9991455-7.8129272-31.0101929-16.8071289-43.4918518   c-7.4887695-10.392395-20.5587769-14.6153564-26.3525391-26.4924316   c-5.3773193-11.0231934-3.3608398-25.6087646,4.210083-35.1317139   c3.9468994,11.2912598,6.2889404,22.7759399,16.1912231,30.7406616c0.8719482-4.737854-1.5372314-10.3078613-2.0281372-15.0349121   c-0.5737915-5.524353-1.3921509-12.5303955-0.0053711-18.0288086c2.885437-11.4401855,19.1038818-11.1633301,28.199646-9.180603   c-8.2017212,6.1942139-15.4564819,10.7263794-17.9835815,21.4440918   c-2.6436157,11.2123413,0.3292847,23.4476929,4.2867432,33.9554443   c7.6409302,20.2879639,21.5292206,34.763092,43.6067352,38.1031799   C276.758606,543.678772,269.3546143,558.1134033,281.920166,574.2908325z M382.3386841,905.4458618   c-5.5108643-0.7400513-7.0111084-6.5706787-8.6784668-11.2284546c-1.4128418-3.9468994-0.4613647-7.4619141,3.4384155-10.7333984   c10.4182739,11.7785034,24.2990723,17.682251,38.5294189,22.9974976   C415.427002,906.9428711,393.1473389,906.897583,382.3386841,905.4458618z M600.2848511,694.9803467   c-4.5368652,9.8966675-12.5322266,19.0280762-19.7698975,27.0524902   c-14.0262451,15.5509033-36.2781372,5.0825806-44.5188599-11.5163574   c11.5025635-1.4033813,25.7637939-0.1685791,35.5648804-7.2925415   c10.1313477-7.3640747,14.4332275-22.0080566,19.7543945-32.8132324   c3.0892334,3.4853516,8.1091309,7.5085449,10.2745361,11.6100464   C603.8395386,686.2819214,602.2208862,690.7572632,600.2848511,694.9803467z M653.124939,673.7607422   c-11.8599854-33.5608521,6.3624878-94.0022583,33.848938-110.3309326   C669.8691406,599.4467773,657.9371338,635.5130005,653.124939,673.7607422z M800.5814209,384.339386   c9.0893555,6.7871094,15.3788452,20.5974121,19.31427,31.0324097c1.6141357,4.2800293,9.9602051,25.9970093-0.369751,25.8649902   c-4.9870605-0.0637207-5.4230347-6.1674805-6.6637573-9.8648071c-1.6309814-4.8602295-3.8674927-9.5415649-6.9200439-13.6759644   c-2.9960938-4.0578003-6.7276001-7.5169067-10.9889526-10.2119141c-5.1459961-3.2543945-11.7324219-3.4208374-16.5403442-6.8321533   C785.5388184,394.1051331,792.314209,388.3265686,800.5814209,384.339386z M726.4320068,255.5267181   c7.2580566-1.5931396,14.1373291,2.9507904,22.2010498-0.0292969c-5.8133545-16.1256104-18.984436-26.5662231-28.5820312-39.588501   c17.9226074,13.4434204,33.56427,29.0091553,45.6988525,47.7914886   c-4.6858521,7.0596313-11.5042725,4.3717651-17.9298096,5.3935547   c7.0197144,10.8323364,15.9192505,19.6161499,23.2017212,29.1696167c-0.1969604,2.1876221-0.8841553,3.4243774-2.9436646,3.9251709   c-8.0581665-8.074585-13.8182983-18.6991577-24.7397461-24.2990723   c7.256897,14.4226685,13.7991333,28.9672241,15.5700073,45.2903442   c-8.8589478-22.447998-21.2383423-42.5021362-40.3209229-59.4555054c7.5949097,0.3924561,13.0267334,3.6311035,19.605957,4.75354   C734.6999512,263.5402527,728.9896851,261.4183044,726.4320068,255.5267181z M725.055481,314.6300964   c6.8713989,10.6868286,12.9172363,20.0897827,18.8861694,29.3730469c-0.7075806,2.5288086-2.0299683,3.2810059-3.0536499,4.0215454   C738.3322754,347.9483337,725.2018433,321.1464539,725.055481,314.6300964z M735.5734253,351.131134   c-1.0372314,2.8214722-2.7312622,4.032959-5.2020874,5.5522461c-3.4580078-5.4393921-6.9075317-10.8654175-10.2665405-16.1489868   c0.4389648-3.8084717,0.8474121-7.3525391,1.2559204-10.8966675c0.3820801-0.1485596,0.7641602-0.2970581,1.1461792-0.4456787   C726.9345703,336.6263123,731.3623047,344.0605164,735.5734253,351.131134z M736.548584,520.4025269   c9.6513062-6.1905518,17.2324829-15.679657,21.0194092-26.514679c4.9022827-14.0263062,1.6955566-29.0509033,1.8121338-43.5413818   c0.0991821-12.3276367,7.8115845-29.5587158,23.1630859-24.7502441   c13.9647217,4.3741455,10.1956177,26.906189,7.8666992,37.6751099c4.7762451-3.4042969,5.2056274-7.8349609,8.2611694-11.2889404   c1.980957,11.7630005-7.5441895,26.055481-14.197876,34.9146118   c-8.8731689,11.8143921-13.1118774,22.9547119-18.0408325,36.7620544   c-4.5393677,12.7157593-9.8398438,25.484436-20.1064453,34.6525879   c-7.0366821,6.2838745-20.8387451,17.2047119-29.796814,9.7780762c-8.9901123-7.453186-14.4419556-21.5449829-8.4516602-32.2626343   C713.960083,525.302002,727.1252441,526.4470215,736.548584,520.4025269z M499.7614136,53.5166435   c-11.6661377-9.4832764-25.2870483-15.1157227-39.2921753-20.3320923   c16.3815308-1.3645039,32.2189941,1.885376,49.3478394,4.7244263c-5.5466919-4.9347534-12.0602417-5.760376-16.859436-9.6605854   c22.2797852,2.0353394,42.9179077,10.3867817,64.2261353,16.3735981   c-4.9117432-5.1695557-11.8264771-7.1781006-17.8374023-11.6773071   c23.2886353,2.3221436,75.508606,36.6278038,82.3169556,54.5229454   c-20.5189209-17.8352661-42.3835449-31.2335167-68.2064819-37.4807701   c8.1005859,6.1090088,14.7042847,13.3380127,18.4280396,23.218502   c-20.3548584-13.796627-42.8192749-22.4578819-66.510498-28.3093224   c29.6123657,13.7687988,59.2694092,27.4099693,82.8319092,51.1397667   c-24.8270264-13.1402588-50.1286011-24.9224243-78.0266724-30.4536743   c14.2243652,10.4586792,26.2779541,22.6138916,34.1917725,38.4664917   c-34.6640015-35.8455811-78.8354492-48.265255-126.6350098-52.3234215   C444.4532471,45.0594292,472.8825684,52.2958183,499.7614136,53.5166435z M388.7629395,144.7749481   c5.2050781-6.0093994,11.4516602-9.5858154,17.3205566-13.8943481   c-14.8649902-3.6513138-33.0355835,6.7885132-45.4129639,13.6390991   c20.3287964-37.3197708,72.2008667-47.7499466,110.1419678-37.3432693   c29.2098389,8.0117188,62.8816528,29.978035,72.1444092,60.618721   c-26.6670532-30.0727539-72.8742676-44.6435013-110.4282837-26.387085   c36.9516602-5.4608765,72.7575684,12.1546631,90.7891846,44.9202881   c-26.2680664-29.1141357-62.8426514-38.4876099-98.9230957-21.7012939   c-31.0046997,14.4249268-45.7172241,43.8985596-45.2251587,77.3002319   c-6.2719727-25.4420166-2.6077271-48.7980957,14.5911255-69.5355835   c-20.0673828,0.7249146-33.6832886,24.0402832-40.8034668,39.8803101   c0.3065796-16.2394409,7.1745605-31.2852783,18.0253906-43.2108154   c11.1254883-12.2272949,26.5856934-18.1950684,41.2178955-25.0428467   C408.3995972,140.7755585,408.3995972,140.7755585,388.7629395,144.7749481z M346.2672729,632.1744995   c-8.3468018-22.8002319-15.7819824-44.1699829-22.079834-66.8718872   C346.0701904,582.9277344,348.4887695,605.928833,346.2672729,632.1744995z M374.7664185,651.1109619   c-1.3279419,10.1484375-1.6022949,21.5352173-4.9611206,31.2028809   c-3.5048828-36.2224731-8.7636719-72.0087891-19.9177246-106.8063965   c4.4221802-0.5240479,13.7484741,14.517334,16.168396,18.1229248c5.432251,8.0939331,10.3322754,17.6184082,11.7693481,27.3684082   C379.2614746,630.7420044,376.0301514,641.4530029,374.7664185,651.1109619z M393.3165894,548.1407471   c-13.7889404,0.7910156-23.8598633,11.1166382-38.421875,6.6829224c-6.1726685-1.8793945-10.640564-5.7084961-15.7055664-9.4422607   c-5.6777344-4.1854248-11.9840088-7.3902588-17.3565063-12.0033569   c-19.0324097-16.3421021-25.3378296-45.3414001-22.4522095-69.4833069   c5.8773804-2.1387329,11.8758545,0.1431274,18.1208496-2.1692505   c-6.4741821-21.0762329-12.4607544-42.1775513-18.0222778-64.0284424c7.8745117,0.487915,13.2780762,7.8186646,20.862854,6.3250732   c0.8338013-4.0648193-3.1723633-8.4758911-4.835022-12.2547607c-2.0903931-4.7509155-3.784729-9.6680908-5.2562866-14.6422119   c-3.0810547-10.4145508-5.0776367-21.0987549-7.3724976-31.7025146   c-4.8811646-22.5549316-10.2791138-45.0287476-15.3366089-67.5499268   c13.8267212-17.7573242,27.2845459-35.0408173,40.6229858-52.1710663c3.2940063,0.7492676,5.2171631,6.6731567,6.689209,9.1552734   c2.5689087,4.3314819,5.1798096,8.6382446,7.8353882,12.9171143c5.3077393,8.5521698,10.7925415,16.995224,16.4698486,25.3068695   c5.3649902,7.8543091,10.8144531,15.7077026,16.6575317,23.2167969   c4.8543701,6.2384644,11.1974487,14.7938843,20.0274048,14.5303955   c-2.772583-22.2773438,4.1010742-47.9717407,21.020752-63.4976044   c16.3269043-14.9819336,38.4169312-16.9178467,59.4692383-14.0047607   c14.7758789,2.0445557,29.6503906,4.8901978,44.6184082,3.2629395c14.652832-1.5930786,27.128418-7.74646,40.1047974-14.3310547   c29.0737915-14.7529907,58.1583862-29.4846191,87.237854-44.2264404   c10.8278198,12.2996826,21.5858765,24.6588135,32.3683472,36.99823   c8.939209,10.2299805,23.5393677,21.2359009,25.3555908,35.3317871   c4.1016846,31.8327484,1.4014282,66.1089935-5.0737915,97.4097137   c-2.9428711,14.2253418-5.5601196,30.7993774,0.3493042,44.7177734c2.4382324,5.7426758,6.4158325,9.7955322,6.2639771,16.4223022   c-0.1817627,7.9311523-3.8811035,15.4602051-4.0523682,23.6098633   c-0.6164551,29.3433228,17.2370605,60.8377686-2.4468384,87.9159241   c-4.3690796,6.0103149-10.0915527,10.2462158-16.2041016,14.3218384   c-3.9641113,2.6431274-8.2121582,6.7637329-12.7543335,8.3615112c-7.7615967,2.7302246-19.4415894-7.5637207-25.7528076-11.1138916   c-10.8458862,8.0325928-23.7054443,5.5785522-36.9714355,6.0735474c4.2120972,9.3947754,9.52948,16.5072021,18.9405518,20.9428711   c1.2071533,23.0841675,1.8014526,46.1430054-7.461853,68.1713867c-6.0315552-0.520813-11.8182983-13.052124-14.843811-17.49646   c-5.3412476-7.8456421-10.3327026-15.9034424-14.8730469-24.2393188   c-8.3973389-15.4169922-23.4470215-25.117981-35.1039429-37.9806519   c4.5095215,11.3710938,12.7629395,38.59729-6.8674927,39.5748901c-8.9453125,0.4454346-8.7788086-8.7950439-10.0892944-15.6989136   c-1.7915649-9.4379272-1.8602295-21.6340942-6.1505737-30.2970581c0,12.331543,2.256958,27.0281982-1.199585,39.0388184   c-2.2844849,7.9379883-8.9136353,10.4962158-16.4498291,11.9353027   c-9.2387085,1.7642212-26.2421875,4.0740967-31.5012817-6.2712402c-2.5745239-5.0645142-1.8604736-11.7943115-1.8674927-17.2525635   c-0.0108032-8.4541626-0.0195923-16.9083862-0.0267944-25.3626709   c-0.0130615-15.3232422-0.0205688-30.6465454-0.0244751-45.9698792   c-0.0018311-7.3974609-0.0029297-14.7949219-0.0032349-22.1923828c-0.0003662-6.1437988-1.0132446-13.3994751,1.6630249-19.1637573   c5.1473389-11.0866699,19.2814331-10.8032837,29.6555786-9.203125   c11.8447266,1.8269653,16.3250732,10.0880127,21.7344971,19.6280518   c12.9553833,22.8474731,33.9837646,38.8323364,59.0388794,46.3840027   c-17.3552246-11.571991-39.9205322-24.9013367-45.2913818-46.9080505   c7.4206543,6.1110229,14.0040283,13.1334839,21.4976196,18.7305298c3.9215698-1.8684082,3.7041016-5.9026489,6.9527588-8.9921875   c24.2940063,12.2062378,47.3135376,7.2121582,68.6867676-9.2426147c1.0217896,3.071228-2.8112793,5.8300781-4.6043701,7.7740479   c6.7904053,0.069519,15.0907593-0.557373,21.425415-3.2466431c6.2415161-2.6497803,7.942627-10.614624,10.2814941-16.3552246   c2.5889893-6.3543701,7.3299561-13.8066406,5.9301758-20.8718872c-1.4992676-7.5671387-8.8250732-14.7659912-13.2019043-20.8981323   c2.0489502-4.7781982,9.5599976-3.7756348,10.5276489-10.0066528c0.6611938-4.2572632-3.1141968-10.3476562-4.8724976-14.0633545   c-4.4886475-9.4854736-10.2333374-18.6442871-18.7976074-24.9634399   c-10.5342407-7.7728271-23.9584961-9.8444214-36.7429199-10.2911987   c-6.8340454-0.2387695-13.7298584-0.0394897-20.5402832,0.5457153c-3.0941162,0.2658081-18.7994385,0.527832-19.7489014,3.9932861   c1.9343262,2.8356934,9.7223511,1.9891357,12.5330811,2.0633545c5.3979492,0.1425171,10.7919312-0.1171265,16.1707153-0.5653687   c10.4188232-0.8682861,20.4042969-1.6552124,30.7528687,0.4743652   c14.6596069,3.0166626,32.1903076,15.7698975,31.0856323,32.7153931   c-4.5827637,2.8996582-16.3413696-3.6726074-20.8410645-5.4421997c-7.2592163-2.8547974-14.0122681-6.5692749-21.8890991-7.4661865   c-14.7383423-1.6781006-27.6114502,5.4730225-39.9911499,12.5053711   c-12.628479,7.1737061-24.0736694,16.244751-36.5888062,23.4884644   c-13.3651123,7.7355957-20.6345215-7.0007935-27.0484009-16.5773315   c-5.5175171,6.600708-5.3804932,18.2268677-1.1906738,25.3793945c2.418335,4.1283569,6.8734131,6.2467651,9.0786743,10.5117188   c2.4473267,4.7329712,2.0253906,10.3376465,1.59552,15.4766235c-10.6552124-10.7458496-38.6239014-14.1513672-48.3840942-0.3157349   c-3.701355-12.866394,4.289856-14.9105835,11.7880249-23.0005493c7.3565674-7.9371338,7.7779541-18.6995239,2.2166138-27.8163452   c-2.4680786,0.4745483-3.480835,4.454895-4.5893555,6.3225098c-1.828064,3.0800171-4.1069946,5.9771118-6.8067017,8.3361206   c-5.2011719,4.5447998-10.576355,6.0852661-17.0563354,3.1931763c-15.536499-6.934021-29.0505371-17.9743652-45.0068359-24.1566772   c-13.1501465-5.0950928-29.0670776-9.9580078-43.2521973-9.9460449   c-6.5024414,0.0056152-12.8131714,1.5324707-18.5881958,4.5206909   c-6.4995728,3.3630981-11.6555786,10.0541992-18.7393799,12.1061401   c3.9712524-16.0014038,15.8251953-30.6121826,31.6428223-36.0238037   c19.0203857-6.5073242,39.4401855,2.5892334,58.6620483-2.5689697c-7.8842163-6.6081543-25.1201172-5.8228149-34.7994385-5.574585   c-10.9093018,0.2798462-22.4730835,1.7577515-32.3779907,6.6281738   c-7.5093994,3.6925049-13.8308105,9.3164062-18.6721191,16.117981   c-5.4823608,7.7020264-11.8669434,19.0943604-11.8165894,28.7218018   c6.9558716,3.3016968,13.7034912,1.5475464,20.9376221-0.0892944c-0.517395,4.3015747-8.0968018,7.5745239-11.0632324,10.3649292   c-3.7460327,3.5236816-7.0111084,7.5603027-9.5090332,12.0634155c-5.2192383,9.4087524-6.7075195,20.3162842-5.6054077,30.9261475   c1.2642212,12.1712646,12.5528564,19.4944458,22.2133179,25.8300171   c7.0037842,4.5932007,23.3049316,15.2622681,32.151001,12.7853394   c-9.6351318-4.6303711-18.8161011-10.3864746-26.5955811-17.7644043   c-6.2498779-5.9273682-14.1604004-13.8295288-14.7258301-22.8393555   c4.3684692-0.520813,11.8043213,10.1895752,14.9328613,12.9068604   c6.8131714,5.9177856,14.3499756,11.1507568,23.0864868,13.7298584c7.9631958,2.3508301,16.3120728,2.3839111,24.4434204,0.9226074   c4.1990356-0.7546997,8.3338013-1.8740234,12.3721313-3.2472534c3.2467651-1.1040649,7.2607422-3.8959961,10.6158447-3.8959961   c2.5511475,1.4324951,2.9314575,5.0471191,5.9006348,7.1954956c6.3544312-3.118103,11.1845093-8.7996826,17.4719238-12.6733398   c-1.5670166,11.6436768-18.8915405,26.6120605-47.6231079,41.4142151   c10.5687866,0.3117676,22.7148438-7.1103821,31.2860107-12.4902039   c11.9840698-7.5218506,22.0873413-17.4887695,31.7845459-27.6958618   c7.8580933,22.9702148,6.4762573,46.2093811,5.2299805,69.0444031c-1.0307007,0.8826294-2.0552979,1.2313232-3.0940552,1.3619385   c-3.9151611,0.4922485-7.6067505,2.0874023-10.4405518,4.833313c-5.7962646,5.6165771-11.8348999,10.9824219-17.9489136,16.2488403   c-7.1598511,6.1672974-13.269043,10.8602905-17.6773071,19.3485107   c-3.8904419,7.4910278-8.2290039,14.7355347-13.3379517,21.4549561   c-4.87146,6.4072876-11.6204834,15.8047485-19.5334473,18.9607544c-3.5423584-3.2576294-2.0829468-13.7766724-3.447937-18.4299927   c-2.237915-7.6290894-6.3689575-14.1019287-6.8812866-22.2476807   C377.3762817,570.6192017,385.453125,559.2694092,393.3165894,548.1407471z M594.8919678,429.9807434   c23.5683594-6.8364868,42.3533936,0.40625,48.2353516,22.6690063   C630.0194702,436.2116394,614.1675415,429.2863464,594.8919678,429.9807434z M601.5995483,450.4812927   c-6.8241577-0.1082153-7.0673218-9.3964233-0.2473755-10.2637939   C607.6668701,441.6595764,609.2805176,450.6031189,601.5995483,450.4812927z M629.5785522,452.7828064   c3.0096436,2.2692261,5.868042,4.4244995,8.782959,6.6224365c-17.0718994,16.4614258-61.7012329,11.6849976-70.3150635-7.4081421   c2.1885376-2.1914062,4.9675903-3.1526489,7.8994751-3.6324463   C597.0372925,468.5657043,607.25,469.4859924,629.5785522,452.7828064z M473.4455566,583.3225708   c-1.4642944,4.1312256-5.831604,6.4671021-10.0917969,5.4364624c-5.9492188-1.43927-11.0692749-4.9984741-12.4144897-9.1744995   c-1.8294678-5.6793823,0.2379761-13.5827637,4.4805298-19.3201904c2.9396973-3.9754639,8.5349731-4.6478271,12.3153076-1.4611206   C474.1200562,564.1855469,476.6071777,574.4024658,473.4455566,583.3225708z M368.1766968,446.2014465   c6.7019653-15.3223877,29.592041-21.0421753,48.9972534-12.3587646   C399.5237427,432.6885071,382.1875,432.7909851,368.1766968,446.2014465z M403.4994507,447.0663147   c-1.3256836,6.3643188-10.8738403,7.2896118-10.8939209-0.0165405   C392.5864868,440.0794373,401.9729004,441.2401428,403.4994507,447.0663147z M375.6176758,454.7163391   c14.104126,18.7695923,41.1768188,12.3203735,51.6401367-6.5440063c4.461792,0.2068481,7.8354492,1.8214722,11.1912842,3.5183105   c-8.0475464,21.2753296-52.7131348,27.171936-71.7901611,9.7827148   C369.7595825,457.615387,370.189209,457.282135,375.6176758,454.7163391z M382.8875732,668.1743774   c-0.3140869-11.0112915,5.5975952-20.3994751,11.520813-29.2383423   c15.0199585-22.4135132,32.8926392-43.138855,50.7589111-63.2998657c2.15271,4.6768188,3.4595947,9.3821411,4.4435425,14.4111328   c0.7220459,3.6902466,1.2070923,6.7091675,4.7477417,8.6783447c3.1242676,1.7376099,7.3166504,1.961853,10.6356201,3.5162354   c3.5625,1.6685181,6.8130493,3.9020996,9.6989746,6.5689087c5.6221313,5.1952515,9.5108643,11.8253174,12.753479,18.685791   c3.5019531,7.4093018,7.1978149,14.2327881,16.1390381,15.4608765   c19.0702515,2.6193848,23.3098145-23.8223877,33.9675903-34.3433228   c6.1877441-6.1083984,14.3511353-5.6879272,20.8546143-10.4943848c6.9423828-5.1308594,4.6349487-14.5876465,8.5957031-21.5675659   c20.4764404,20.3539429,38.9672241,41.8419189,56.1763916,65.8245239   c8.8185425-15.6953735,9.4053955-32.7625122,12.9678345-50.1835938c4.2008057,8.0092773,3.5384521,18.6295776,3.4915161,27.413147   c-0.0512695,9.5899658-1.0075684,19.0672607-1.8711548,28.6046143c-0.8613892,9.5127563-0.046875,18.8125,0.2496948,28.3172607   c0.1895752,6.0757446,1.5707397,22.0579224-4.5772705,25.8526611c-2.8654785-5.7462158-8.081665-9.3705444-12.4719238-13.8239746   c-5.310791-5.387146-4.6785889-8.8259888-4.2296753-15.7931519c0.6430664-9.9800415-12.7185059-29.0063477-21.5731201-33.2915649   c-1.8769531,3.1264648,1.2970581,6.9870605,0.7946167,10.3763428c-0.4094849,2.7626343-1.9910889,4.524353-4.2544556,6.0239868   c-7.1054077,4.7078247-17.5282593,5.0377808-25.7359009,4.8934937c-18.1000366-0.3182373-35.6557007-5.6899414-52.687439,1.8673706   c-9.855896,4.37323-15.9675903-1.229248-25.2998047-3.630249c-8.6037598-2.213562-17.5905762-1.1689453-26.3167114-0.4799194   c-9.1854858,0.7252197-18.2268066,2.2826538-27.3864746,3.1717529c-7.7982178,0.7568359-18.8407593,1.8914795-24.9337158-4.2575684   c-1.647583-4.3210449,1.0747681-7.7697144,0.0971069-13.0852661c-5.9515991,7.3682251-12.3637695,15.8761597-15.977478,24.6946411   c-3.6117554,8.8134155,1.3983154,17.0114136,2.4907227,25.7648315   C387.9343262,688.4755249,383.1776123,678.3396606,382.8875732,668.1743774z M460.6183472,691.5249023   c-13.8062744-3.409729-27.5369263-8.5966797-41.6664429-10.3583374   c14.392395,15.0962524,31.0519409,24.3610229,49.8120728,33.2423706   c-7.8946533,3.6032715-20.394043,12.6989136-28.8358765,9.7781982c-9.442627-3.2668457-19.7153931-9.7528076-26.1385498-17.413208   c-5.8184204-6.9391479-11.1387939-21.005249-5.7546387-29.6987915c4.96698-8.0197754,22.9749756-5.8660889,30.9031982-5.9054565   c12.2532349-0.0609131,24.855957,0.1682129,36.9810791,2.0558472c12.2987061,1.9146729,22.0858154,8.3994751,34.3113403,3.9790039   c12.2006836-4.411377,24.8852539-5.4376831,37.7494507-6.0881348c6.0817871-0.3075562,12.1604614-0.3399048,18.2454224-0.5106201   c3.9665527-0.1112061,16.3529663-3.1901245,18.8480835-0.0237427c-5.8551025,13.227417-16.545166,17.600769-29.8406372,21.0301514   c-15.5581055,4.0130005-31.6171265,5.8857422-47.675415,5.8856201   C491.5991211,697.4977417,476.0941772,695.3469238,460.6183472,691.5249023z M603.3109741,898.4558716   c-12.385437-0.0668945-24.7984009,1.0009766-37.3297729,2.2306519c10.4711914-5.1875,20.6416626-10.6798096,30.2330322-16.522583   C602.5699463,886.7620239,603.9116211,889.4411011,603.3109741,898.4558716z"/><path d="M778.0490723,867.7822266c-9.295166-9.494751-19.2333984-18.4741211-27.6021729-28.7299805   c-8.5723877-10.5053711-8.9987793-24.6339111-13.3439331-37.0461426   c-6.7321777-19.2307739-12.6418457-38.7539673-21.1763916-57.3146973   c-5.1168213-11.1278687-14.0653076-17.5286865-24.2937012-20.9016724   c2.4760742,41.4674683-4.0848389,82.2182007-7.0280762,123.119812   c-2.9588623,41.121521-8.0790405,82.0443115-12.9852905,123.067688c2.99646,0.2744751,4.4683838-1.1398315,6.0814209-2.052002   c13.06427-7.3858643,26.1446533-14.7459717,39.1065674-22.3085327c3.9522705-2.3060303,7.9072266-3.4353638,12.5361328-3.4260864   c37.7469482,0.0753174,75.4942627-0.0388184,113.2415161-0.0947266c2.086731-0.0030518,4.1734619-0.0004272,7.8137207-0.0004272   c-2.1738281-2.4644775-3.2387085-3.7880249-4.4217529-4.9959717   C823.3410034,913.9872437,800.6802979,890.899231,778.0490723,867.7822266z"/><path d="M423.7576904,328.2676086c11.4827271,1.0666504,22.9028931,2.6879883,34.5462036,1.4850464   c31.4851074-3.2529907,63.0430298-3.2553711,94.6508789-1.8945312c16.0755615,0.6921387,32.2007446,2.0890503,49.0592651,0.0913086   c-1.2727051-0.3106079-1.8024902-0.4959106-2.3468018-0.5646973c-25.3959351-3.2089844-50.7667236-6.3658447-76.4815674-5.8062744   c-41.9839478,0.9137573-84.000061-0.5585327-125.9719849,1.3990479c-12.3237305,0.574707-24.0418091,3.9435425-35.2890625,9.088501   C382.3237305,326.8836975,402.9544067,326.3352966,423.7576904,328.2676086z"/><path d="M619.2025146,307.1197205c-17.2091675-2.711792-42.8122559-1.9893188-53.5826416,1.2271729   C583.2375488,311.9570618,601.1098022,306.6807556,619.2025146,307.1197205z"/><path d="M648.4863892,487.2715759c-10.3111572,4.9016724-19.8587036,8.6802368-31.3849487,9.4962769   C625.868042,502.7087708,640.3154907,497.3905945,648.4863892,487.2715759z"/><path d="M410.1629639,351.9736023c13.5906982,2.807373,26.9204712,5.5606689,40.2503052,8.3140869   C437.9525757,352.8080139,424.3716431,351.4499817,410.1629639,351.9736023z"/><path d="M554.0092773,358.066925c12.3259277-2.3226318,24.6519165-4.6452637,36.9779053-6.9678955   C578.0952148,350.2986145,565.5444946,351.3742371,554.0092773,358.066925z"/><path d="M646.8684082,326.0558167c-8.0690918-3.4376831-16.2845459-4.6557007-24.7177734-5.0419922   C628.8754883,325.2970276,639.8881226,327.4308167,646.8684082,326.0558167z"/><path d="M770.310791,476.1199646c16.043457,4.3782959,17.7598267-38.8717651,7.171814-44.6705933   c-9.6010742,2.6742554-13.7590942,10.7127686-14.4203491,20.1564941   C762.6158447,457.9809875,762.2712402,473.9259338,770.310791,476.1199646z"/></g><text x="0" y="1015" fill="#000000" font-size="5px" font-weight="bold" font-family="'Helvetica Neue', Helvetica, Arial-Unicode, Arial, Sans-serif">Created by Brad</text><text x="0" y="1020" fill="#000000" font-size="5px" font-weight="bold" font-family="'Helvetica Neue', Helvetica, Arial-Unicode, Arial, Sans-serif">from the Noun Project</text></svg>